<svg id="Layer_1" data-name="Layer 1" xmlns="http://www.w3.org/2000/svg" viewBox="0 0 287.33 119.64"><defs><style>.cls-1,.cls-2{fill:#fff;}.cls-2{font-size:44.41px;font-family:ToppanBunkyuMidashiGothicStdN-ExtraBold-83pv-RKSJ-H, Toppan Bunkyu Midashi Gothic;}</style></defs><path class="cls-1" d="M162.28,316v-9.65h45.48V316H190.81V361.7H179.24V316Z" transform="translate(-162.28 -305.58)"/><path class="cls-1" d="M245.31,322.26a6.83,6.83,0,0,0-2.78-5.08,11,11,0,0,0-6.68-1.81,13,13,0,0,0-4.84.79,6.89,6.89,0,0,0-3,2.21,5.23,5.23,0,0,0-1,3.19,4.52,4.52,0,0,0,.64,2.59,6.18,6.18,0,0,0,1.9,1.91,13.71,13.71,0,0,0,2.82,1.38,26.62,26.62,0,0,0,3.4,1l5,1.19a35.27,35.27,0,0,1,6.65,2.17,20.29,20.29,0,0,1,5.24,3.32,14,14,0,0,1,3.45,4.65,14.89,14.89,0,0,1,1.26,6.14,15.27,15.27,0,0,1-2.59,8.8,16.4,16.4,0,0,1-7.35,5.76,29.48,29.48,0,0,1-11.56,2,30.29,30.29,0,0,1-11.66-2.06,16.94,16.94,0,0,1-7.73-6.09,18.06,18.06,0,0,1-2.91-10h11.33a8.31,8.31,0,0,0,1.61,4.64,8.57,8.57,0,0,0,3.81,2.78,14.84,14.84,0,0,0,5.42.93,14,14,0,0,0,5.17-.86,7.92,7.92,0,0,0,3.42-2.41,5.48,5.48,0,0,0,1.22-3.54,4.61,4.61,0,0,0-1.09-3.13,8.64,8.64,0,0,0-3.19-2.17,34,34,0,0,0-5.13-1.62l-6-1.51A25.27,25.27,0,0,1,219,332.1a12.32,12.32,0,0,1-4-9.76,14.48,14.48,0,0,1,2.69-8.79,17.93,17.93,0,0,1,7.47-5.86,26.41,26.41,0,0,1,10.82-2.11,25.58,25.58,0,0,1,10.77,2.11,17,17,0,0,1,7.18,5.86,15.53,15.53,0,0,1,2.65,8.71Z" transform="translate(-162.28 -305.58)"/><path class="cls-1" d="M299.33,306.34H311v36A18.83,18.83,0,0,1,300.11,360,29.94,29.94,0,0,1,276,360a19.22,19.22,0,0,1-8-7.07,19.44,19.44,0,0,1-2.86-10.6v-36h11.7v35a11.32,11.32,0,0,0,1.39,5.63,9.89,9.89,0,0,0,3.94,3.86,13.15,13.15,0,0,0,11.85,0,9.9,9.9,0,0,0,3.92-3.86,11.22,11.22,0,0,0,1.4-5.63Z" transform="translate(-162.28 -305.58)"/><path class="cls-1" d="M320.66,361.7V306.34h11.7v24.41h.73L353,306.34h14L346.5,331.13l20.79,30.57h-14l-15.17-22.76-5.76,7V361.7Z" transform="translate(-162.28 -305.58)"/><path class="cls-1" d="M384.86,306.34V361.7h-11.7V306.34Z" transform="translate(-162.28 -305.58)"/><path class="cls-1" d="M416.68,306.34h11.58v38.6a17.54,17.54,0,0,1-2.4,9.3,16,16,0,0,1-6.63,6.09,21.74,21.74,0,0,1-9.87,2.13,22.48,22.48,0,0,1-9.07-1.77,14.34,14.34,0,0,1-6.45-5.41,16.17,16.17,0,0,1-2.35-9.15h11.65a8.3,8.3,0,0,0,.9,3.75,5.94,5.94,0,0,0,2.36,2.38,7.25,7.25,0,0,0,3.55.82,6.85,6.85,0,0,0,3.67-.93,5.84,5.84,0,0,0,2.28-2.75,11.24,11.24,0,0,0,.78-4.46Z" transform="translate(-162.28 -305.58)"/><path class="cls-1" d="M449.61,306.34V361.7h-11.7V306.34Z" transform="translate(-162.28 -305.58)"/><text class="cls-2" transform="translate(8.76 106.76)"><tspan xml:space="preserve">築   地   市   場</tspan></text></svg>